<mxfile host="app.diagrams.net" agent="Mozilla/5.0 (X11; Linux x86_64) AppleWebKit/537.36 (KHTML, like Gecko) Chrome/138.0.0.0 Safari/537.36" version="28.0.6">
  <diagram name="Page-1" id="5FlElkxKYZUP69-Jtlup">
    <mxGraphModel dx="1191" dy="1806" grid="1" gridSize="10" guides="1" tooltips="1" connect="1" arrows="1" fold="1" page="1" pageScale="1" pageWidth="850" pageHeight="1100" math="0" shadow="0">
      <root>
        <mxCell id="0" />
        <mxCell id="1" parent="0" />
        <mxCell id="B6YLdzFrlatJZyaLc0QG-1" value="AWS Cloud" style="points=[[0,0],[0.25,0],[0.5,0],[0.75,0],[1,0],[1,0.25],[1,0.5],[1,0.75],[1,1],[0.75,1],[0.5,1],[0.25,1],[0,1],[0,0.75],[0,0.5],[0,0.25]];outlineConnect=0;gradientColor=none;html=1;whiteSpace=wrap;fontSize=12;fontStyle=0;container=1;pointerEvents=0;collapsible=0;recursiveResize=0;shape=mxgraph.aws4.group;grIcon=mxgraph.aws4.group_aws_cloud_alt;strokeColor=#232F3E;fillColor=none;verticalAlign=top;align=left;spacingLeft=30;fontColor=#232F3E;dashed=0;" parent="1" vertex="1">
          <mxGeometry x="620" y="160" width="800" height="780" as="geometry" />
        </mxCell>
        <mxCell id="B6YLdzFrlatJZyaLc0QG-2" value="Region" style="points=[[0,0],[0.25,0],[0.5,0],[0.75,0],[1,0],[1,0.25],[1,0.5],[1,0.75],[1,1],[0.75,1],[0.5,1],[0.25,1],[0,1],[0,0.75],[0,0.5],[0,0.25]];outlineConnect=0;gradientColor=none;html=1;whiteSpace=wrap;fontSize=12;fontStyle=0;container=1;pointerEvents=0;collapsible=0;recursiveResize=0;shape=mxgraph.aws4.group;grIcon=mxgraph.aws4.group_region;strokeColor=#00A4A6;fillColor=none;verticalAlign=top;align=left;spacingLeft=30;fontColor=#147EBA;dashed=1;" parent="1" vertex="1">
          <mxGeometry x="650" y="190" width="750" height="730" as="geometry" />
        </mxCell>
        <mxCell id="B6YLdzFrlatJZyaLc0QG-3" value="Availability zone" style="sketch=0;outlineConnect=0;gradientColor=none;html=1;whiteSpace=wrap;fontSize=12;fontStyle=0;shape=mxgraph.aws4.group;grIcon=mxgraph.aws4.group_availability_zone;strokeColor=#545B64;fillColor=none;verticalAlign=top;align=left;spacingLeft=30;fontColor=#545B64;dashed=1;" parent="B6YLdzFrlatJZyaLc0QG-2" vertex="1">
          <mxGeometry x="50" y="30" width="540" height="230" as="geometry" />
        </mxCell>
        <mxCell id="B6YLdzFrlatJZyaLc0QG-4" value="Availability zone" style="sketch=0;outlineConnect=0;gradientColor=none;html=1;whiteSpace=wrap;fontSize=12;fontStyle=0;shape=mxgraph.aws4.group;grIcon=mxgraph.aws4.group_availability_zone;strokeColor=#545B64;fillColor=none;verticalAlign=top;align=left;spacingLeft=30;fontColor=#545B64;dashed=1;" parent="B6YLdzFrlatJZyaLc0QG-2" vertex="1">
          <mxGeometry x="50" y="410" width="540" height="250" as="geometry" />
        </mxCell>
        <mxCell id="B6YLdzFrlatJZyaLc0QG-5" value="VPC" style="shape=mxgraph.ibm.box;prType=vpc;fontStyle=0;verticalAlign=top;align=left;spacingLeft=32;spacingTop=4;fillColor=none;rounded=0;whiteSpace=wrap;html=1;strokeColor=#4376BB;strokeWidth=2;dashed=0;container=1;spacing=-4;collapsible=0;expand=0;recursiveResize=0;" parent="B6YLdzFrlatJZyaLc0QG-2" vertex="1">
          <mxGeometry x="74" y="10" width="480" height="680" as="geometry" />
        </mxCell>
        <mxCell id="B6YLdzFrlatJZyaLc0QG-6" value="Public subnet" style="points=[[0,0],[0.25,0],[0.5,0],[0.75,0],[1,0],[1,0.25],[1,0.5],[1,0.75],[1,1],[0.75,1],[0.5,1],[0.25,1],[0,1],[0,0.75],[0,0.5],[0,0.25]];outlineConnect=0;gradientColor=none;html=1;whiteSpace=wrap;fontSize=12;fontStyle=0;container=1;pointerEvents=0;collapsible=0;recursiveResize=0;shape=mxgraph.aws4.group;grIcon=mxgraph.aws4.group_security_group;grStroke=0;strokeColor=#7AA116;fillColor=#F2F6E8;verticalAlign=top;align=left;spacingLeft=30;fontColor=#248814;dashed=0;" parent="B6YLdzFrlatJZyaLc0QG-5" vertex="1">
          <mxGeometry x="20" y="50" width="130" height="170" as="geometry" />
        </mxCell>
        <mxCell id="B6YLdzFrlatJZyaLc0QG-7" value="Public subnet" style="points=[[0,0],[0.25,0],[0.5,0],[0.75,0],[1,0],[1,0.25],[1,0.5],[1,0.75],[1,1],[0.75,1],[0.5,1],[0.25,1],[0,1],[0,0.75],[0,0.5],[0,0.25]];outlineConnect=0;gradientColor=none;html=1;whiteSpace=wrap;fontSize=12;fontStyle=0;container=1;pointerEvents=0;collapsible=0;recursiveResize=0;shape=mxgraph.aws4.group;grIcon=mxgraph.aws4.group_security_group;grStroke=0;strokeColor=#7AA116;fillColor=#F2F6E8;verticalAlign=top;align=left;spacingLeft=30;fontColor=#248814;dashed=0;" parent="B6YLdzFrlatJZyaLc0QG-5" vertex="1">
          <mxGeometry x="20" y="430" width="130" height="180" as="geometry" />
        </mxCell>
        <mxCell id="B6YLdzFrlatJZyaLc0QG-8" value="Private subnet" style="points=[[0,0],[0.25,0],[0.5,0],[0.75,0],[1,0],[1,0.25],[1,0.5],[1,0.75],[1,1],[0.75,1],[0.5,1],[0.25,1],[0,1],[0,0.75],[0,0.5],[0,0.25]];outlineConnect=0;gradientColor=none;html=1;whiteSpace=wrap;fontSize=12;fontStyle=0;container=1;pointerEvents=0;collapsible=0;recursiveResize=0;shape=mxgraph.aws4.group;grIcon=mxgraph.aws4.group_security_group;grStroke=0;strokeColor=#00A4A6;fillColor=#E6F6F7;verticalAlign=top;align=left;spacingLeft=30;fontColor=#147EBA;dashed=0;" parent="B6YLdzFrlatJZyaLc0QG-5" vertex="1">
          <mxGeometry x="240" y="30" width="230" height="180" as="geometry" />
        </mxCell>
        <mxCell id="B6YLdzFrlatJZyaLc0QG-9" value="" style="points=[];aspect=fixed;html=1;align=center;shadow=0;dashed=0;fillColor=#FF6A00;strokeColor=none;shape=mxgraph.alibaba_cloud.ecs_elastic_compute_service;" parent="B6YLdzFrlatJZyaLc0QG-8" vertex="1">
          <mxGeometry x="85.28" y="103.14" width="44.3" height="41.29" as="geometry" />
        </mxCell>
        <mxCell id="B6YLdzFrlatJZyaLc0QG-10" value="Private subnet" style="points=[[0,0],[0.25,0],[0.5,0],[0.75,0],[1,0],[1,0.25],[1,0.5],[1,0.75],[1,1],[0.75,1],[0.5,1],[0.25,1],[0,1],[0,0.75],[0,0.5],[0,0.25]];outlineConnect=0;gradientColor=none;html=1;whiteSpace=wrap;fontSize=12;fontStyle=0;container=1;pointerEvents=0;collapsible=0;recursiveResize=0;shape=mxgraph.aws4.group;grIcon=mxgraph.aws4.group_security_group;grStroke=0;strokeColor=#00A4A6;fillColor=#E6F6F7;verticalAlign=top;align=left;spacingLeft=30;fontColor=#147EBA;dashed=0;" parent="B6YLdzFrlatJZyaLc0QG-5" vertex="1">
          <mxGeometry x="240" y="410" width="230" height="200" as="geometry" />
        </mxCell>
        <mxCell id="B6YLdzFrlatJZyaLc0QG-11" value="" style="points=[];aspect=fixed;html=1;align=center;shadow=0;dashed=0;fillColor=#FF6A00;strokeColor=none;shape=mxgraph.alibaba_cloud.eci_elastic_container_instance;" parent="B6YLdzFrlatJZyaLc0QG-10" vertex="1">
          <mxGeometry x="152" y="130" width="54.900000000000006" height="38.4" as="geometry" />
        </mxCell>
        <mxCell id="B6YLdzFrlatJZyaLc0QG-12" value="ENI" style="text;html=1;align=center;verticalAlign=middle;whiteSpace=wrap;rounded=0;" parent="B6YLdzFrlatJZyaLc0QG-10" vertex="1">
          <mxGeometry x="8.5" y="80" width="60" height="30" as="geometry" />
        </mxCell>
        <mxCell id="B6YLdzFrlatJZyaLc0QG-13" value="" style="sketch=0;points=[[0,0,0],[0.25,0,0],[0.5,0,0],[0.75,0,0],[1,0,0],[0,1,0],[0.25,1,0],[0.5,1,0],[0.75,1,0],[1,1,0],[0,0.25,0],[0,0.5,0],[0,0.75,0],[1,0.25,0],[1,0.5,0],[1,0.75,0]];outlineConnect=0;fontColor=#232F3E;fillColor=#ED7100;strokeColor=#ffffff;dashed=0;verticalLabelPosition=bottom;verticalAlign=top;align=center;html=1;fontSize=12;fontStyle=0;aspect=fixed;shape=mxgraph.aws4.resourceIcon;resIcon=mxgraph.aws4.ecs_anywhere;" parent="B6YLdzFrlatJZyaLc0QG-5" vertex="1">
          <mxGeometry x="176" y="290" width="70" height="70" as="geometry" />
        </mxCell>
        <mxCell id="B6YLdzFrlatJZyaLc0QG-14" value="" style="sketch=0;points=[[0,0,0],[0.25,0,0],[0.5,0,0],[0.75,0,0],[1,0,0],[0,1,0],[0.25,1,0],[0.5,1,0],[0.75,1,0],[1,1,0],[0,0.25,0],[0,0.5,0],[0,0.75,0],[1,0.25,0],[1,0.5,0],[1,0.75,0]];outlineConnect=0;fontColor=#232F3E;fillColor=#ED7100;strokeColor=#ffffff;dashed=0;verticalLabelPosition=bottom;verticalAlign=top;align=center;html=1;fontSize=12;fontStyle=0;aspect=fixed;shape=mxgraph.aws4.resourceIcon;resIcon=mxgraph.aws4.fargate;" parent="B6YLdzFrlatJZyaLc0QG-5" vertex="1">
          <mxGeometry x="310" y="285.15" width="74.85" height="74.85" as="geometry" />
        </mxCell>
        <mxCell id="B6YLdzFrlatJZyaLc0QG-15" value="" style="sketch=0;outlineConnect=0;fontColor=#232F3E;gradientColor=none;fillColor=#8C4FFF;strokeColor=none;dashed=0;verticalLabelPosition=bottom;verticalAlign=top;align=center;html=1;fontSize=12;fontStyle=0;aspect=fixed;pointerEvents=1;shape=mxgraph.aws4.application_load_balancer;" parent="B6YLdzFrlatJZyaLc0QG-5" vertex="1">
          <mxGeometry x="56" y="286" width="78" height="78" as="geometry" />
        </mxCell>
        <mxCell id="B6YLdzFrlatJZyaLc0QG-16" value="" style="points=[];aspect=fixed;html=1;align=center;shadow=0;dashed=0;fillColor=#FF6A00;strokeColor=none;shape=mxgraph.alibaba_cloud.eci_elastic_container_instance;" parent="B6YLdzFrlatJZyaLc0QG-5" vertex="1">
          <mxGeometry x="392" y="65" width="54.900000000000006" height="38.4" as="geometry" />
        </mxCell>
        <mxCell id="B6YLdzFrlatJZyaLc0QG-17" value="" style="sketch=0;outlineConnect=0;fontColor=#232F3E;gradientColor=none;fillColor=#ED7100;strokeColor=none;dashed=0;verticalLabelPosition=bottom;verticalAlign=top;align=center;html=1;fontSize=12;fontStyle=0;aspect=fixed;pointerEvents=1;shape=mxgraph.aws4.ecs_task;" parent="B6YLdzFrlatJZyaLc0QG-5" vertex="1">
          <mxGeometry x="330" y="535.58" width="40" height="51.89" as="geometry" />
        </mxCell>
        <mxCell id="B6YLdzFrlatJZyaLc0QG-18" value="" style="sketch=0;outlineConnect=0;fontColor=#232F3E;gradientColor=none;fillColor=#8C4FFF;strokeColor=none;dashed=0;verticalLabelPosition=bottom;verticalAlign=top;align=center;html=1;fontSize=12;fontStyle=0;aspect=fixed;pointerEvents=1;shape=mxgraph.aws4.elastic_network_interface;" parent="B6YLdzFrlatJZyaLc0QG-5" vertex="1">
          <mxGeometry x="261" y="455" width="35" height="35" as="geometry" />
        </mxCell>
        <mxCell id="B6YLdzFrlatJZyaLc0QG-19" value="" style="sketch=0;outlineConnect=0;fontColor=#232F3E;gradientColor=none;fillColor=#8C4FFF;strokeColor=none;dashed=0;verticalLabelPosition=bottom;verticalAlign=top;align=center;html=1;fontSize=12;fontStyle=0;aspect=fixed;pointerEvents=1;shape=mxgraph.aws4.elastic_network_interface;" parent="B6YLdzFrlatJZyaLc0QG-5" vertex="1">
          <mxGeometry x="266" y="136.29000000000002" width="35" height="35" as="geometry" />
        </mxCell>
        <mxCell id="B6YLdzFrlatJZyaLc0QG-20" value="" style="sketch=0;outlineConnect=0;fontColor=#232F3E;gradientColor=none;fillColor=#8C4FFF;strokeColor=none;dashed=0;verticalLabelPosition=bottom;verticalAlign=top;align=center;html=1;fontSize=12;fontStyle=0;aspect=fixed;pointerEvents=1;shape=mxgraph.aws4.internet_gateway;" parent="B6YLdzFrlatJZyaLc0QG-5" vertex="1">
          <mxGeometry x="-24" y="295" width="50" height="50" as="geometry" />
        </mxCell>
        <mxCell id="B6YLdzFrlatJZyaLc0QG-21" value="" style="endArrow=classic;startArrow=classic;html=1;rounded=0;exitX=0.984;exitY=0.62;exitDx=0;exitDy=0;exitPerimeter=0;" parent="B6YLdzFrlatJZyaLc0QG-5" source="B6YLdzFrlatJZyaLc0QG-20" target="B6YLdzFrlatJZyaLc0QG-15" edge="1">
          <mxGeometry width="50" height="50" relative="1" as="geometry">
            <mxPoint x="236" y="250" as="sourcePoint" />
            <mxPoint x="286" y="200" as="targetPoint" />
          </mxGeometry>
        </mxCell>
        <mxCell id="B6YLdzFrlatJZyaLc0QG-22" value="" style="endArrow=classic;startArrow=classic;html=1;rounded=0;" parent="B6YLdzFrlatJZyaLc0QG-5" source="B6YLdzFrlatJZyaLc0QG-15" target="B6YLdzFrlatJZyaLc0QG-13" edge="1">
          <mxGeometry width="50" height="50" relative="1" as="geometry">
            <mxPoint x="396" y="340" as="sourcePoint" />
            <mxPoint x="446" y="290" as="targetPoint" />
          </mxGeometry>
        </mxCell>
        <mxCell id="B6YLdzFrlatJZyaLc0QG-23" value="" style="endArrow=classic;startArrow=classic;html=1;rounded=0;exitX=1;exitY=0.5;exitDx=0;exitDy=0;exitPerimeter=0;" parent="B6YLdzFrlatJZyaLc0QG-5" source="B6YLdzFrlatJZyaLc0QG-13" target="B6YLdzFrlatJZyaLc0QG-14" edge="1">
          <mxGeometry width="50" height="50" relative="1" as="geometry">
            <mxPoint x="396" y="340" as="sourcePoint" />
            <mxPoint x="446" y="290" as="targetPoint" />
          </mxGeometry>
        </mxCell>
        <mxCell id="B6YLdzFrlatJZyaLc0QG-24" value="" style="endArrow=classic;startArrow=classic;html=1;rounded=0;exitX=0.499;exitY=1.072;exitDx=0;exitDy=0;exitPerimeter=0;entryX=0.5;entryY=0;entryDx=0;entryDy=0;entryPerimeter=0;" parent="B6YLdzFrlatJZyaLc0QG-5" source="B6YLdzFrlatJZyaLc0QG-9" target="B6YLdzFrlatJZyaLc0QG-14" edge="1">
          <mxGeometry width="50" height="50" relative="1" as="geometry">
            <mxPoint x="396" y="340" as="sourcePoint" />
            <mxPoint x="446" y="290" as="targetPoint" />
          </mxGeometry>
        </mxCell>
        <mxCell id="B6YLdzFrlatJZyaLc0QG-25" value="" style="sketch=0;outlineConnect=0;fontColor=#232F3E;gradientColor=none;fillColor=#ED7100;strokeColor=none;dashed=0;verticalLabelPosition=bottom;verticalAlign=top;align=center;html=1;fontSize=12;fontStyle=0;aspect=fixed;pointerEvents=1;shape=mxgraph.aws4.ecs_task;" parent="B6YLdzFrlatJZyaLc0QG-5" vertex="1">
          <mxGeometry x="325.28000000000003" y="60.199999999999996" width="37" height="48" as="geometry" />
        </mxCell>
        <mxCell id="B6YLdzFrlatJZyaLc0QG-26" value="" style="endArrow=classic;startArrow=classic;html=1;rounded=0;exitX=0.559;exitY=1.025;exitDx=0;exitDy=0;exitPerimeter=0;entryX=0.486;entryY=0.103;entryDx=0;entryDy=0;entryPerimeter=0;" parent="B6YLdzFrlatJZyaLc0QG-5" source="B6YLdzFrlatJZyaLc0QG-25" target="B6YLdzFrlatJZyaLc0QG-9" edge="1">
          <mxGeometry width="50" height="50" relative="1" as="geometry">
            <mxPoint x="396" y="280" as="sourcePoint" />
            <mxPoint x="446" y="230" as="targetPoint" />
          </mxGeometry>
        </mxCell>
        <mxCell id="B6YLdzFrlatJZyaLc0QG-27" value="" style="endArrow=classic;startArrow=classic;html=1;rounded=0;exitX=1.108;exitY=0.675;exitDx=0;exitDy=0;exitPerimeter=0;entryX=0.022;entryY=0.698;entryDx=0;entryDy=0;entryPerimeter=0;" parent="B6YLdzFrlatJZyaLc0QG-5" source="B6YLdzFrlatJZyaLc0QG-25" target="B6YLdzFrlatJZyaLc0QG-16" edge="1">
          <mxGeometry width="50" height="50" relative="1" as="geometry">
            <mxPoint x="396" y="90" as="sourcePoint" />
            <mxPoint x="446" y="40" as="targetPoint" />
          </mxGeometry>
        </mxCell>
        <mxCell id="B6YLdzFrlatJZyaLc0QG-28" value="" style="endArrow=classic;startArrow=classic;html=1;rounded=0;exitX=0.5;exitY=1;exitDx=0;exitDy=0;exitPerimeter=0;" parent="B6YLdzFrlatJZyaLc0QG-5" source="B6YLdzFrlatJZyaLc0QG-14" target="B6YLdzFrlatJZyaLc0QG-29" edge="1">
          <mxGeometry width="50" height="50" relative="1" as="geometry">
            <mxPoint x="396" y="420" as="sourcePoint" />
            <mxPoint x="446" y="370" as="targetPoint" />
          </mxGeometry>
        </mxCell>
        <mxCell id="B6YLdzFrlatJZyaLc0QG-29" value="" style="points=[];aspect=fixed;html=1;align=center;shadow=0;dashed=0;fillColor=#FF6A00;strokeColor=none;shape=mxgraph.alibaba_cloud.ecs_elastic_compute_service;" parent="B6YLdzFrlatJZyaLc0QG-5" vertex="1">
          <mxGeometry x="325.70000000000005" y="452.5" width="48.27" height="45" as="geometry" />
        </mxCell>
        <mxCell id="B6YLdzFrlatJZyaLc0QG-30" value="" style="endArrow=classic;startArrow=classic;html=1;rounded=0;exitX=0.503;exitY=1.016;exitDx=0;exitDy=0;exitPerimeter=0;" parent="B6YLdzFrlatJZyaLc0QG-5" source="B6YLdzFrlatJZyaLc0QG-29" target="B6YLdzFrlatJZyaLc0QG-17" edge="1">
          <mxGeometry width="50" height="50" relative="1" as="geometry">
            <mxPoint x="396" y="510" as="sourcePoint" />
            <mxPoint x="446" y="460" as="targetPoint" />
          </mxGeometry>
        </mxCell>
        <mxCell id="B6YLdzFrlatJZyaLc0QG-31" value="" style="endArrow=classic;startArrow=classic;html=1;rounded=0;entryX=0.109;entryY=0.536;entryDx=0;entryDy=0;entryPerimeter=0;" parent="B6YLdzFrlatJZyaLc0QG-5" source="B6YLdzFrlatJZyaLc0QG-17" target="B6YLdzFrlatJZyaLc0QG-11" edge="1">
          <mxGeometry width="50" height="50" relative="1" as="geometry">
            <mxPoint x="396" y="510" as="sourcePoint" />
            <mxPoint x="446" y="460" as="targetPoint" />
          </mxGeometry>
        </mxCell>
        <mxCell id="B6YLdzFrlatJZyaLc0QG-32" value="" style="rounded=1;whiteSpace=wrap;html=1;fillColor=none;dashed=1;" parent="B6YLdzFrlatJZyaLc0QG-5" vertex="1">
          <mxGeometry x="260" y="435" width="210" height="165" as="geometry" />
        </mxCell>
        <mxCell id="B6YLdzFrlatJZyaLc0QG-33" value="" style="rounded=1;whiteSpace=wrap;html=1;fillColor=none;dashed=1;" parent="B6YLdzFrlatJZyaLc0QG-5" vertex="1">
          <mxGeometry x="250" y="50" width="220" height="150" as="geometry" />
        </mxCell>
        <mxCell id="B6YLdzFrlatJZyaLc0QG-34" value="ALB" style="text;html=1;align=center;verticalAlign=middle;whiteSpace=wrap;rounded=0;" parent="B6YLdzFrlatJZyaLc0QG-5" vertex="1">
          <mxGeometry x="56" y="256" width="60" height="30" as="geometry" />
        </mxCell>
        <mxCell id="B6YLdzFrlatJZyaLc0QG-35" value="ECS" style="text;html=1;align=center;verticalAlign=middle;whiteSpace=wrap;rounded=0;" parent="B6YLdzFrlatJZyaLc0QG-5" vertex="1">
          <mxGeometry x="176" y="260" width="60" height="30" as="geometry" />
        </mxCell>
        <mxCell id="B6YLdzFrlatJZyaLc0QG-36" value="Fargate" style="text;html=1;align=center;verticalAlign=middle;whiteSpace=wrap;rounded=0;" parent="B6YLdzFrlatJZyaLc0QG-5" vertex="1">
          <mxGeometry x="286" y="255.14999999999998" width="60" height="30" as="geometry" />
        </mxCell>
        <mxCell id="B6YLdzFrlatJZyaLc0QG-37" value="ENI" style="text;html=1;align=center;verticalAlign=middle;whiteSpace=wrap;rounded=0;" parent="B6YLdzFrlatJZyaLc0QG-5" vertex="1">
          <mxGeometry x="253.5" y="165.00000000000003" width="60" height="30" as="geometry" />
        </mxCell>
        <mxCell id="B6YLdzFrlatJZyaLc0QG-38" value="Service" style="text;html=1;align=center;verticalAlign=middle;whiteSpace=wrap;rounded=0;" parent="B6YLdzFrlatJZyaLc0QG-5" vertex="1">
          <mxGeometry x="370" y="460" width="60" height="30" as="geometry" />
        </mxCell>
        <mxCell id="B6YLdzFrlatJZyaLc0QG-39" value="Service" style="text;html=1;align=center;verticalAlign=middle;whiteSpace=wrap;rounded=0;" parent="B6YLdzFrlatJZyaLc0QG-5" vertex="1">
          <mxGeometry x="362.28" y="165.00000000000003" width="60" height="30" as="geometry" />
        </mxCell>
        <mxCell id="B6YLdzFrlatJZyaLc0QG-40" value="Task defination" style="text;html=1;align=center;verticalAlign=middle;whiteSpace=wrap;rounded=0;" parent="B6YLdzFrlatJZyaLc0QG-5" vertex="1">
          <mxGeometry x="270" y="65" width="60" height="30" as="geometry" />
        </mxCell>
        <mxCell id="B6YLdzFrlatJZyaLc0QG-41" value="Task defination" style="text;html=1;align=center;verticalAlign=middle;whiteSpace=wrap;rounded=0;" parent="B6YLdzFrlatJZyaLc0QG-5" vertex="1">
          <mxGeometry x="270" y="550" width="60" height="30" as="geometry" />
        </mxCell>
        <mxCell id="B6YLdzFrlatJZyaLc0QG-42" value="container" style="text;html=1;align=center;verticalAlign=middle;whiteSpace=wrap;rounded=0;" parent="B6YLdzFrlatJZyaLc0QG-5" vertex="1">
          <mxGeometry x="392" y="505.58000000000004" width="60" height="30" as="geometry" />
        </mxCell>
        <mxCell id="B6YLdzFrlatJZyaLc0QG-43" value="container" style="text;html=1;align=center;verticalAlign=middle;whiteSpace=wrap;rounded=0;" parent="B6YLdzFrlatJZyaLc0QG-5" vertex="1">
          <mxGeometry x="389.45000000000005" y="108.19999999999999" width="60" height="30" as="geometry" />
        </mxCell>
        <mxCell id="B6YLdzFrlatJZyaLc0QG-44" value="NAT gateway" style="sketch=0;outlineConnect=0;fontColor=#232F3E;gradientColor=none;strokeColor=#232F3E;fillColor=#ffffff;dashed=0;verticalLabelPosition=bottom;verticalAlign=top;align=center;html=1;fontSize=12;fontStyle=0;aspect=fixed;shape=mxgraph.aws4.resourceIcon;resIcon=mxgraph.aws4.nat_gateway;" parent="B6YLdzFrlatJZyaLc0QG-5" vertex="1">
          <mxGeometry x="74.2" y="108.2" width="41.8" height="41.8" as="geometry" />
        </mxCell>
        <mxCell id="B6YLdzFrlatJZyaLc0QG-45" value="141.0.0.0/16" style="text;html=1;align=center;verticalAlign=middle;whiteSpace=wrap;rounded=0;" parent="B6YLdzFrlatJZyaLc0QG-5" vertex="1">
          <mxGeometry x="56" width="60" height="30" as="geometry" />
        </mxCell>
        <mxCell id="B6YLdzFrlatJZyaLc0QG-46" value="10.0.1.0/24" style="text;html=1;align=center;verticalAlign=middle;whiteSpace=wrap;rounded=0;" parent="B6YLdzFrlatJZyaLc0QG-5" vertex="1">
          <mxGeometry x="26" y="190" width="60" height="30" as="geometry" />
        </mxCell>
        <mxCell id="B6YLdzFrlatJZyaLc0QG-47" value="10.0.2.0/24" style="text;html=1;align=center;verticalAlign=middle;whiteSpace=wrap;rounded=0;" parent="B6YLdzFrlatJZyaLc0QG-5" vertex="1">
          <mxGeometry x="26" y="587.47" width="60" height="30" as="geometry" />
        </mxCell>
        <mxCell id="B6YLdzFrlatJZyaLc0QG-48" value="10.0.4.0/24" style="text;html=1;align=center;verticalAlign=middle;whiteSpace=wrap;rounded=0;" parent="B6YLdzFrlatJZyaLc0QG-5" vertex="1">
          <mxGeometry x="396" y="410" width="60" height="30" as="geometry" />
        </mxCell>
        <mxCell id="B6YLdzFrlatJZyaLc0QG-49" value="10.0.3.0/24" style="text;html=1;align=center;verticalAlign=middle;whiteSpace=wrap;rounded=0;" parent="B6YLdzFrlatJZyaLc0QG-5" vertex="1">
          <mxGeometry x="396" y="20" width="60" height="30" as="geometry" />
        </mxCell>
        <mxCell id="B6YLdzFrlatJZyaLc0QG-50" value="" style="sketch=0;points=[[0,0,0],[0.25,0,0],[0.5,0,0],[0.75,0,0],[1,0,0],[0,1,0],[0.25,1,0],[0.5,1,0],[0.75,1,0],[1,1,0],[0,0.25,0],[0,0.5,0],[0,0.75,0],[1,0.25,0],[1,0.5,0],[1,0.75,0]];outlineConnect=0;fontColor=#232F3E;fillColor=#ED7100;strokeColor=#ffffff;dashed=0;verticalLabelPosition=bottom;verticalAlign=top;align=center;html=1;fontSize=12;fontStyle=0;aspect=fixed;shape=mxgraph.aws4.resourceIcon;resIcon=mxgraph.aws4.ecr;" parent="B6YLdzFrlatJZyaLc0QG-2" vertex="1">
          <mxGeometry x="657" y="300" width="70" height="70" as="geometry" />
        </mxCell>
        <mxCell id="B6YLdzFrlatJZyaLc0QG-51" value="Amazon CloudWatch" style="sketch=0;outlineConnect=0;fontColor=#232F3E;gradientColor=none;strokeColor=#ffffff;fillColor=#232F3E;dashed=0;verticalLabelPosition=middle;verticalAlign=bottom;align=center;html=1;whiteSpace=wrap;fontSize=10;fontStyle=1;spacing=3;shape=mxgraph.aws4.productIcon;prIcon=mxgraph.aws4.cloudwatch;" parent="B6YLdzFrlatJZyaLc0QG-2" vertex="1">
          <mxGeometry x="560" y="280" width="80" height="110" as="geometry" />
        </mxCell>
        <mxCell id="B6YLdzFrlatJZyaLc0QG-52" value="" style="endArrow=classic;startArrow=classic;html=1;rounded=0;exitX=1;exitY=0.5;exitDx=0;exitDy=0;exitPerimeter=0;" parent="B6YLdzFrlatJZyaLc0QG-2" source="B6YLdzFrlatJZyaLc0QG-14" target="B6YLdzFrlatJZyaLc0QG-51" edge="1">
          <mxGeometry width="50" height="50" relative="1" as="geometry">
            <mxPoint x="470" y="470" as="sourcePoint" />
            <mxPoint x="520" y="420" as="targetPoint" />
          </mxGeometry>
        </mxCell>
        <mxCell id="B6YLdzFrlatJZyaLc0QG-53" value="" style="endArrow=classic;startArrow=classic;html=1;rounded=0;exitX=1.013;exitY=0.656;exitDx=0;exitDy=0;exitPerimeter=0;entryX=0.5;entryY=0;entryDx=0;entryDy=0;entryPerimeter=0;" parent="B6YLdzFrlatJZyaLc0QG-2" source="B6YLdzFrlatJZyaLc0QG-16" target="B6YLdzFrlatJZyaLc0QG-50" edge="1">
          <mxGeometry width="50" height="50" relative="1" as="geometry">
            <mxPoint x="470" y="120" as="sourcePoint" />
            <mxPoint x="520" y="70" as="targetPoint" />
            <Array as="points">
              <mxPoint x="692" y="100" />
            </Array>
          </mxGeometry>
        </mxCell>
        <mxCell id="B6YLdzFrlatJZyaLc0QG-54" value="" style="endArrow=classic;startArrow=classic;html=1;rounded=0;entryX=0.5;entryY=1;entryDx=0;entryDy=0;entryPerimeter=0;exitX=1.027;exitY=0.745;exitDx=0;exitDy=0;exitPerimeter=0;" parent="B6YLdzFrlatJZyaLc0QG-2" source="B6YLdzFrlatJZyaLc0QG-11" target="B6YLdzFrlatJZyaLc0QG-50" edge="1">
          <mxGeometry width="50" height="50" relative="1" as="geometry">
            <mxPoint x="470" y="450" as="sourcePoint" />
            <mxPoint x="520" y="400" as="targetPoint" />
            <Array as="points">
              <mxPoint x="690" y="579" />
            </Array>
          </mxGeometry>
        </mxCell>
        <mxCell id="B6YLdzFrlatJZyaLc0QG-55" value="IGW" style="text;html=1;align=center;verticalAlign=middle;whiteSpace=wrap;rounded=0;" parent="B6YLdzFrlatJZyaLc0QG-2" vertex="1">
          <mxGeometry x="20" y="290" width="60" height="30" as="geometry" />
        </mxCell>
        <mxCell id="B6YLdzFrlatJZyaLc0QG-56" value="ECR" style="text;html=1;align=center;verticalAlign=middle;whiteSpace=wrap;rounded=0;" parent="B6YLdzFrlatJZyaLc0QG-2" vertex="1">
          <mxGeometry x="700" y="370" width="60" height="30" as="geometry" />
        </mxCell>
        <mxCell id="0V448rpDX5ILRWhxnARz-5" value="Amazon S3" style="sketch=0;outlineConnect=0;fontColor=#232F3E;gradientColor=none;strokeColor=#ffffff;fillColor=#232F3E;dashed=0;verticalLabelPosition=middle;verticalAlign=bottom;align=center;html=1;whiteSpace=wrap;fontSize=10;fontStyle=1;spacing=3;shape=mxgraph.aws4.productIcon;prIcon=mxgraph.aws4.s3;" vertex="1" parent="B6YLdzFrlatJZyaLc0QG-2">
          <mxGeometry x="647" width="80" height="100" as="geometry" />
        </mxCell>
        <mxCell id="B6YLdzFrlatJZyaLc0QG-57" value="Users" style="sketch=0;outlineConnect=0;fontColor=#232F3E;gradientColor=none;strokeColor=#232F3E;fillColor=#ffffff;dashed=0;verticalLabelPosition=bottom;verticalAlign=top;align=center;html=1;fontSize=12;fontStyle=0;aspect=fixed;shape=mxgraph.aws4.resourceIcon;resIcon=mxgraph.aws4.users;" parent="1" vertex="1">
          <mxGeometry x="460" y="490" width="60" height="60" as="geometry" />
        </mxCell>
        <mxCell id="B6YLdzFrlatJZyaLc0QG-58" value="" style="endArrow=classic;startArrow=classic;html=1;rounded=0;" parent="1" source="B6YLdzFrlatJZyaLc0QG-57" target="B6YLdzFrlatJZyaLc0QG-20" edge="1">
          <mxGeometry width="50" height="50" relative="1" as="geometry">
            <mxPoint x="830" y="630" as="sourcePoint" />
            <mxPoint x="880" y="580" as="targetPoint" />
          </mxGeometry>
        </mxCell>
        <mxCell id="0V448rpDX5ILRWhxnARz-1" value="" style="whiteSpace=wrap;html=1;shape=mxgraph.basic.document" vertex="1" parent="1">
          <mxGeometry x="600" y="-120" width="100" height="100" as="geometry" />
        </mxCell>
        <mxCell id="0V448rpDX5ILRWhxnARz-2" value="" style="dashed=0;outlineConnect=0;html=1;align=center;labelPosition=center;verticalLabelPosition=bottom;verticalAlign=top;shape=mxgraph.weblogos.github" vertex="1" parent="1">
          <mxGeometry x="890" y="-107.5" width="75" height="75" as="geometry" />
        </mxCell>
        <mxCell id="0V448rpDX5ILRWhxnARz-3" value="" style="endArrow=classic;html=1;rounded=0;exitX=1;exitY=0.5;exitDx=0;exitDy=0;exitPerimeter=0;" edge="1" parent="1" source="0V448rpDX5ILRWhxnARz-1" target="0V448rpDX5ILRWhxnARz-2">
          <mxGeometry width="50" height="50" relative="1" as="geometry">
            <mxPoint x="810" y="130" as="sourcePoint" />
            <mxPoint x="860" y="80" as="targetPoint" />
          </mxGeometry>
        </mxCell>
        <mxCell id="0V448rpDX5ILRWhxnARz-4" value="" style="endArrow=classic;html=1;rounded=0;entryX=0.433;entryY=0.004;entryDx=0;entryDy=0;entryPerimeter=0;" edge="1" parent="1" source="0V448rpDX5ILRWhxnARz-2" target="B6YLdzFrlatJZyaLc0QG-5">
          <mxGeometry width="50" height="50" relative="1" as="geometry">
            <mxPoint x="810" y="130" as="sourcePoint" />
            <mxPoint x="860" y="80" as="targetPoint" />
          </mxGeometry>
        </mxCell>
        <mxCell id="0V448rpDX5ILRWhxnARz-6" value="" style="endArrow=classic;html=1;rounded=0;" edge="1" parent="1" source="0V448rpDX5ILRWhxnARz-2" target="0V448rpDX5ILRWhxnARz-5">
          <mxGeometry width="50" height="50" relative="1" as="geometry">
            <mxPoint x="1030" y="130" as="sourcePoint" />
            <mxPoint x="1080" y="80" as="targetPoint" />
            <Array as="points">
              <mxPoint x="1340" y="-70" />
            </Array>
          </mxGeometry>
        </mxCell>
        <mxCell id="0V448rpDX5ILRWhxnARz-7" value="terraform state" style="text;html=1;align=center;verticalAlign=middle;whiteSpace=wrap;rounded=0;" vertex="1" parent="1">
          <mxGeometry x="1140" y="-107.5" width="90" height="30" as="geometry" />
        </mxCell>
        <mxCell id="0V448rpDX5ILRWhxnARz-8" value="Infra provision&amp;nbsp; with Github workflow" style="text;html=1;align=center;verticalAlign=middle;whiteSpace=wrap;rounded=0;" vertex="1" parent="1">
          <mxGeometry x="930" y="60" width="130" height="30" as="geometry" />
        </mxCell>
        <mxCell id="0V448rpDX5ILRWhxnARz-9" value="terraform configs" style="text;html=1;align=center;verticalAlign=middle;whiteSpace=wrap;rounded=0;" vertex="1" parent="1">
          <mxGeometry x="610" y="-85" width="60" height="30" as="geometry" />
        </mxCell>
        <mxCell id="0V448rpDX5ILRWhxnARz-10" value="github repo" style="text;html=1;align=center;verticalAlign=middle;whiteSpace=wrap;rounded=0;" vertex="1" parent="1">
          <mxGeometry x="890" y="-150" width="80" height="30" as="geometry" />
        </mxCell>
      </root>
    </mxGraphModel>
  </diagram>
</mxfile>
